<svg width="34" height="36" viewBox="0 0 34 36" fill="none" xmlns="http://www.w3.org/2000/svg">
<path d="M22.9875 3.04531C21.4672 1.40391 19.3438 0.5 17 0.5C14.6438 0.5 12.5133 1.39844 11 3.02969C9.47031 4.67891 8.725 6.92031 8.9 9.34063C9.24687 14.1156 12.8805 18 17 18C21.1195 18 24.7469 14.1164 25.0992 9.34219C25.2766 6.94375 24.5266 4.70703 22.9875 3.04531Z" fill="#3671E9"/>
<path d="M30.7499 35.5H3.2499C2.88995 35.5047 2.53348 35.4291 2.20643 35.2786C1.87938 35.1282 1.58998 34.9068 1.35927 34.6305C0.85146 34.0234 0.646772 33.1945 0.798335 32.3562C1.45771 28.6984 3.51552 25.6258 6.7499 23.4687C9.62334 21.5539 13.2632 20.5 16.9999 20.5C20.7366 20.5 24.3765 21.5547 27.2499 23.4687C30.4843 25.625 32.5421 28.6977 33.2015 32.3555C33.353 33.1937 33.1483 34.0227 32.6405 34.6297C32.4099 34.9062 32.1205 35.1277 31.7935 35.2783C31.4664 35.4288 31.1099 35.5046 30.7499 35.5V35.5Z" fill="#3671E9"/>
</svg>
