<svg width="28" height="30" viewBox="0 0 28 30" fill="none" xmlns="http://www.w3.org/2000/svg">
<g clip-path="url(#clip0_1_1314)">
<path d="M27.125 30H1.8125C1.31522 30 0.838306 29.7893 0.486675 29.4142C0.135044 29.0391 -0.0625 28.5304 -0.0625 28V1C-0.0625 0.734784 0.036272 0.48043 0.212087 0.292893C0.387903 0.105357 0.62636 0 0.875 0C1.12364 0 1.3621 0.105357 1.53791 0.292893C1.71373 0.48043 1.8125 0.734784 1.8125 1V28H27.125C27.3736 28 27.6121 28.1054 27.7879 28.2929C27.9637 28.4804 28.0625 28.7348 28.0625 29C28.0625 29.2652 27.9637 29.5196 27.7879 29.7071C27.6121 29.8946 27.3736 30 27.125 30Z" fill="#3671E9"/>
<path d="M8.14062 26H5.79688C5.23743 26 4.70091 25.7629 4.30532 25.341C3.90974 24.919 3.6875 24.3467 3.6875 23.75V14.25C3.6875 13.6533 3.90974 13.081 4.30532 12.659C4.70091 12.2371 5.23743 12 5.79688 12H8.14062C8.70007 12 9.23659 12.2371 9.63218 12.659C10.0278 13.081 10.25 13.6533 10.25 14.25V23.75C10.25 24.3467 10.0278 24.919 9.63218 25.341C9.23659 25.7629 8.70007 26 8.14062 26Z" fill="#3671E9"/>
<path d="M16.5781 26H14.2344C13.6749 26 13.1384 25.7629 12.7428 25.341C12.3472 24.919 12.125 24.3467 12.125 23.75V11.25C12.125 10.6533 12.3472 10.081 12.7428 9.65901C13.1384 9.23705 13.6749 9 14.2344 9H16.5781C17.1376 9 17.6741 9.23705 18.0697 9.65901C18.4653 10.081 18.6875 10.6533 18.6875 11.25V23.75C18.6875 24.3467 18.4653 24.919 18.0697 25.341C17.6741 25.7629 17.1376 26 16.5781 26V26Z" fill="#3671E9"/>
<path d="M24.9944 26H22.6507C22.0913 26 21.5547 25.7629 21.1591 25.341C20.7636 24.919 20.5413 24.3467 20.5413 23.75V7.25C20.5413 6.65326 20.7636 6.08097 21.1591 5.65901C21.5547 5.23705 22.0913 5 22.6507 5H24.9944C25.5539 5 26.0904 5.23705 26.486 5.65901C26.8816 6.08097 27.1038 6.65326 27.1038 7.25V23.75C27.1038 24.3467 26.8816 24.919 26.486 25.341C26.0904 25.7629 25.5539 26 24.9944 26Z" fill="#3671E9"/>
</g>
<defs>
<clipPath id="clip0_1_1314">
<rect width="28" height="30" fill="white"/>
</clipPath>
</defs>
</svg>
